<!-- Generator: Adobe Illustrator 19.2.1, SVG Export Plug-In  -->
<svg version="1.1"
	 xmlns="http://www.w3.org/2000/svg" xmlns:xlink="http://www.w3.org/1999/xlink" xmlns:a="http://ns.adobe.com/AdobeSVGViewerExtensions/3.0/"
	 x="0px" y="0px" width="70px" height="104.8px" viewBox="0 0 70 104.8" style="enable-background:new 0 0 70 104.8;"
	 xml:space="preserve">
<style type="text/css">
	.st0{fill:#3A3B3B;}
	.st1{clip-path:url(#SVGID_2_);fill:url(#SVGID_3_);}
	.st2{clip-path:url(#SVGID_5_);fill:url(#SVGID_6_);}
</style>
<defs>
</defs>
<g>
	<path class="st0" d="M24.3,62.4c0,0,1.8-6.9-6.1-15.9l-0.3-0.3c-3.3-4-5.2-9-5.2-14.2c0-12.1,9.9-22,22-22h0.5c12.2,0,22,9.9,22,22
		c0,5.2-1.8,10.2-5.2,14.2c0,0-0.1,0.1-0.3,0.3c-7,7.1-6.1,15.9-6.1,15.9c12.9-4.4,21.6-16.5,21.6-30.1C67.5,15.3,53.8,0.8,36.8,0
		c-0.2,0-0.4,0-0.6,0C36,0,35,0,35,0c0,0-0.9,0-1.2,0c-0.2,0-0.4,0-0.6,0C16.2,0.8,2.6,15.3,2.6,32.3C2.7,45.8,11.4,57.9,24.3,62.4"
		/>
	<path class="st0" d="M65.9,87.9c0.6-0.2,1.2-0.4,1.9-0.6c0.7-0.1,1.4-0.2,2.2-0.3c0,0,0-0.3-0.1-0.6c0-0.4-0.2-0.9-0.4-1.3
		c-0.1-0.2-0.2-0.5-0.2-0.7c-0.1-0.2-0.2-0.4-0.3-0.6c-0.2-0.3-0.3-0.6-0.3-0.6c-0.8-0.1-1.6-0.3-2.3-0.5c-0.7-0.2-1.5-0.5-2.1-0.7
		c-1.2-0.5-2.3-1.1-2.9-1.7c-0.7-0.6-0.8-1.2-0.8-1.8c0-0.3,0.2-0.5,0.4-0.8c0.2-0.2,0.5-0.5,0.8-0.7c0,0-0.3-0.2-0.7-0.4
		c-0.2-0.1-0.4-0.2-0.7-0.4c-0.3-0.1-0.6-0.3-0.9-0.4c-0.6-0.3-1.2-0.6-1.7-0.7c-0.5-0.2-0.8-0.3-0.8-0.3c-0.6,0.1-1.2,0.1-1.8,0.1
		c-0.6,0-1.3,0-1.9-0.1c-1.3-0.1-2.5-0.3-3.7-0.6c-0.6-0.1-1.1-0.3-1.5-0.5c-0.4-0.2-0.8-0.4-1.1-0.6c-0.6-0.4-1-0.9-1-1.3
		c0,0-0.4-0.1-0.9-0.1c-0.5-0.1-1.7-0.2-2.5-0.3c0,0.1-0.1,0.2-0.1,0.4l-0.2,0.9c-0.4,1.8,0.7,3.7,2.4,4.2c4.4,1.3,7.7,3.4,8.6,5.9
		c1.9,5.2-6.2,10.3-18.5,10.3c-12.3,0-20.4-5.1-18.5-10.3c0.9-2.5,4.1-4.6,8.3-5.8c1.9-0.6,3-2.5,2.6-4.4l-0.3-1.2
		c-0.5,0.1-1.1,0.1-1.6,0.2c-0.7,0.1-1.4,0.2-2,0.3C23.1,72,22.7,72,22.7,72c0,0.4-0.3,0.9-0.8,1.3c-0.3,0.2-0.6,0.4-1,0.6
		c-0.4,0.2-0.9,0.4-1.4,0.5c-0.5,0.2-1.1,0.3-1.8,0.4c-0.6,0.1-1.2,0.2-1.9,0.3c-1.3,0.1-2.6,0.1-3.8,0c0,0-0.1,0-0.2,0.1
		c-0.1,0.1-0.3,0.1-0.6,0.2c-0.4,0.2-1,0.5-1.6,0.8c-0.6,0.3-1.1,0.6-1.5,0.8c-0.2,0.1-0.4,0.2-0.5,0.3c-0.1,0.1-0.2,0.1-0.2,0.1
		c0.8,0.4,1.3,0.9,1.4,1.4c0.2,0.6-0.1,1.2-0.6,1.8c-0.3,0.3-0.7,0.6-1.2,1c-0.5,0.3-1,0.6-1.7,0.9c-1.2,0.6-2.7,1.1-4.4,1.4
		c0,0-0.1,0.2-0.3,0.6c-0.1,0.4-0.3,0.8-0.5,1.3c-0.1,0.5-0.1,1-0.2,1.4c-0.1,0.4,0,0.6,0,0.6c1.7,0,3.2,0.3,4.3,0.8
		c1.3,0.4,2.1,1.1,2.7,1.9c0.5,0.9,0.7,1.8,0.2,2.8c-0.3,1-1.1,2.1-2.5,3.2c0,0,0.1,0.1,0.2,0.2c0.1,0.1,0.4,0.3,0.6,0.4
		c0.5,0.4,1.2,0.9,2,1.4c0.8,0.5,1.7,0.9,2.3,1.3c0.3,0.2,0.6,0.3,0.8,0.4c0.2,0.1,0.3,0.1,0.3,0.1c1.9-0.8,3.9-1.2,6-1.4
		c1-0.1,2-0.1,3-0.1c1,0,2,0.1,2.9,0.3c0.9,0.2,1.8,0.5,2.6,0.8c0.8,0.3,1.5,0.8,2.2,1.2c1.3,0.9,2.4,2.2,2.8,3.6c0,0,0.7,0,1.7,0.1
		c1,0,2.4,0.1,3.8,0c1.4,0,2.8-0.1,3.8-0.1c1-0.1,1.7-0.2,1.7-0.2c0.1-0.7,0.5-1.4,0.9-2c0.2-0.3,0.5-0.6,0.7-0.8
		c0.3-0.3,0.5-0.6,0.8-0.8c0.6-0.5,1.3-0.9,2.1-1.3c0.8-0.4,1.6-0.7,2.5-0.9c1-0.2,1.8-0.4,2.8-0.4c1-0.1,2,0,3,0
		c2,0.1,4.2,0.6,6.1,1.3c0,0,0.4-0.2,1.1-0.6c0.6-0.4,1.5-0.8,2.1-1.3c0.7-0.5,1.4-1,1.8-1.4c0.4-0.4,0.7-0.7,0.7-0.7
		c-1.4-1-2.2-2-2.7-3.1c-0.2-0.5-0.3-1-0.3-1.4c0-0.5,0.1-0.9,0.3-1.3C63.8,89,64.8,88.4,65.9,87.9"/>
</g>
<g>
	<defs>
		<path id="SVGID_1_" d="M18.7,32.2c0,4,1.9,7.7,5.1,10.3c3.9,3.2,7.1,9.6,7.3,16.7c0.2,7.8-0.3,16.9-0.7,21.5
			c-4.2,0.6-7.1,2-7.1,3.6c0,2.2,5.2,4.7,11.6,4.7c6.4,0,11.6-2.5,11.6-4.7c0-1.6-2.9-3-7.1-3.6c-0.3-4.6-0.9-13.7-0.7-21.5
			c0.2-7,3.4-13.5,7.3-16.7c3.2-2.6,5.1-6.2,5.1-10.3c-0.1-7.7-7.3-13.9-16.3-13.9C26,18.2,18.8,24.4,18.7,32.2"/>
	</defs>
	<clipPath id="SVGID_2_">
		<use xlink:href="#SVGID_1_"  style="overflow:visible;"/>
	</clipPath>
	
		<linearGradient id="SVGID_3_" gradientUnits="userSpaceOnUse" x1="-486.9121" y1="439.644" x2="-482.4217" y2="439.644" gradientTransform="matrix(-3.2957 23.0702 23.0702 3.2957 -11705.5498 9789.3027)">
		<stop  offset="0" style="stop-color:#45B5E7"/>
		<stop  offset="7.171168e-02" style="stop-color:#37B3E7"/>
		<stop  offset="0.1291" style="stop-color:#18B0E6"/>
		<stop  offset="0.4043" style="stop-color:#2F8ECD"/>
		<stop  offset="0.6793" style="stop-color:#3872B9"/>
		<stop  offset="0.8857" style="stop-color:#3B62AE"/>
		<stop  offset="1" style="stop-color:#3D5CAA"/>
	</linearGradient>
	<polygon class="st1" points="61.1,19.7 50.6,93.4 8.8,87.5 19.3,13.7 	"/>
</g>
</svg>
