<!-- Generator: Adobe Illustrator 19.2.1, SVG Export Plug-In  -->
<svg version="1.1"
	 xmlns="http://www.w3.org/2000/svg" xmlns:xlink="http://www.w3.org/1999/xlink" xmlns:a="http://ns.adobe.com/AdobeSVGViewerExtensions/3.0/"
	 x="0px" y="0px" width="98.6px" height="110.2px" viewBox="0 0 98.6 110.2" style="enable-background:new 0 0 98.6 110.2;"
	 xml:space="preserve">
<style type="text/css">
	.st0{fill:none;}
	.st1{fill:none;stroke:#384EA1;stroke-width:0;stroke-linecap:round;stroke-linejoin:round;}
	.st2{fill:#384EA1;}
	.st3{fill:#FFFFFF;}
	.st4{fill:#EF5386;}
	.st5{fill:#10B1E7;}
	.st6{fill:#344FA0;}
	.st7{fill:#1CB0E6;}
</style>
<defs>
</defs>
<g>
	<circle class="st0" cx="91.5" cy="64.8" r="3.1"/>
	<circle class="st0" cx="7.6" cy="65.1" r="3.1"/>
	<line class="st1" x1="54.7" y1="88.5" x2="54.7" y2="88.5"/>
	<path class="st2" d="M77.3,94l-2.5-1.1c-1-0.4-2.2-0.5-3.2-0.1l-13.4,4.8l-3.5-9l-2.1-4.8h-8.4l-1.2,5.2l-3.2,9.1l-13.7-4.5
		c-0.8-0.3-1.7-0.3-2.5,0l-3.7,1.3c-2.1,0.7-3.3,3.2-2.5,5.5l2.6,3.6l-0.6,1.3c0,2.8,1.5,5.2,4.3,5.2l25.5-2.1l24.8,2.1
		c2.8,0,4.7-2.7,4.7-5.5l-1-0.9l0.1,0l2.4-2.6C81.2,98.3,80,95.1,77.3,94z"/>
	<path class="st2" d="M89.9,74.2L83,75.7l-2,3.8l-14.9,0.6l-0.3,3.4l-4.6,0.9l-1-5.7l-5.8-4.3v6.8l2.5,4.2l2,3l6.6-0.4l-0.2,2.6
		l17-4.6l5.9-2.1c0.8-0.3,1.4-0.9,1.7-1.8l2.5-4.4C92.9,76.4,91.5,73.9,89.9,74.2z"/>
	<path class="st2" d="M32.4,88.1l6.6,0.4l2-3l2.2-4.2v-6.6l-5.6,4.1l-1,5.7L32,83.5l-0.3-3.4l-14.9-0.6l-2-3.8l-6.9-1.6
		c-1.5-0.3-3,2.2-2.4,3.7L8,82.3C8.3,83.1,9,83.8,9.8,84l5.9,2.1l17,4.6L32.4,88.1z"/>
	<path class="st3" d="M60.4,33c2.4,0,4.5,0.8,6.3,2c1.4-2.7,3-5.6,4.6-8.7c2.4-4.5,7.2-7.5,11.9-10.4c6.3-3.9,10-6.6,9.2-10.4
		c-0.1-0.4-0.2-1.2-2.1-1.4c-0.2,0-0.5,0-0.7,0c-8.2,0-26,10.4-27.6,14.5c-0.9,2.4-2.1,7.4-3.3,14.5c0,0,0.1,0,0.1,0
		C59.3,33,59.8,33,60.4,33z"/>
	<path class="st3" d="M37.8,33.1c0.1,0,0.2,0,0.3,0c-1.2-7-2.4-12.1-3.3-14.5C33.1,14.6,15.3,4.2,7.1,4.2c-0.3,0-0.5,0-0.7,0
		c-1.9,0.2-2,0.9-2.1,1.4C3.5,9.4,7.2,12,13.5,16c4.7,2.9,9.5,5.9,11.9,10.4c1.6,3,3.1,5.9,4.5,8.5c1.7-1.2,3.9-1.9,6.1-1.9
		C36.6,33,37.2,33.1,37.8,33.1z"/>
	<path class="st3" d="M27.9,61.4h12.4c-0.2,0.4-0.4,0.9-0.5,1.4H28.2c0.3,0.9,0.7,1.8,1.3,2.5l10.3-1.5c0,0.5,0.1,0.9,0.3,1.4
		l-9.4,1.4c1.1,0.9,2.6,1.6,4.4,2.2l5.6-2.5c0.3,0.4,0.6,0.7,1,1.1l-4.3,1.9c2.8,0.5,6.2,0.8,10.5,0.8c3.9,0,7.1-0.2,9.8-0.6
		l-3.1-1.9c0.4-0.3,0.7-0.6,1-1l3.9,2.4L59.4,69c2-0.5,3.6-1.1,4.9-1.9l-7.9-1.8c0.2-0.4,0.3-0.9,0.4-1.3l8.9,2
		c0.9-0.9,1.5-1.9,1.8-3.1H56.7c-0.1-0.5-0.2-0.9-0.5-1.4h11.6c0.1-0.7,0.2-1.5,0.2-2.3c0-2.1-0.4-4.2-1.1-6.4
		c-1.8,1.3-4.1,2.2-6.5,2.2c-0.3,0-0.5,0-0.8-0.1c-0.3,2.1-1.4,3.7-2.8,3.7c-1.6,0-2.9-2.1-2.9-4.6c0-0.4,0-0.8,0.1-1.2
		c-0.9-0.6-1.6-1.3-2.3-1.9c-1.4-1.3-2.2-2-3.4-2c-1.5,0-2.4,0.8-4,2.2c-0.5,0.4-1,0.9-1.5,1.4c0.1,0.5,0.2,1,0.2,1.5
		c0,2.5-1.3,4.6-2.9,4.6c-1.4,0-2.6-1.6-2.8-3.7c-0.4,0-0.8,0.1-1.2,0.1c-2.7,0-5.1-1-7-2.6c-0.8,2.3-1.2,4.6-1.2,6.8
		C27.7,59.9,27.8,60.7,27.9,61.4z M51,61.4c0.7,0,1.2,0.5,0.8,0.9l-1.3,1.4l-1.3,1.4c-0.4,0.4-1.3,0.4-1.7,0l-1.3-1.4l-1.3-1.4
		c-0.4-0.4,0.1-0.9,0.8-0.9h2.5H51z"/>
	<path class="st4" d="M45.1,62.3l1.3,1.4l1.3,1.4c0.4,0.4,1.3,0.4,1.7,0l1.3-1.4l1.3-1.4c0.4-0.4-0.1-0.9-0.8-0.9h-2.5h-2.5
		C45.2,61.4,44.7,61.9,45.1,62.3z"/>
	<path class="st5" d="M14.3,62.8l-1.3,0c-0.3-0.6-0.7-1.2-1.1-1.7l0.5-1.2c-0.4-0.4-0.8-0.7-1.3-0.9l-1,0.9
		c-0.6-0.3-1.2-0.4-1.9-0.5L7.8,58c-0.5,0-1,0-1.6,0.1c0,0-0.1,0-0.1,0l-0.2,1.4c-0.6,0.2-1.1,0.4-1.6,0.8l-1.1-0.7
		c-0.5,0.4-0.9,0.8-1.2,1.3L2.6,62c-0.3,0.4-0.5,0.9-0.6,1.4l-1.3,0.1c-0.1,0.6-0.2,1.2-0.2,1.8l1.3,0.5c0,0.1,0,0.3,0.1,0.4
		c0.1,0.3,0.2,0.6,0.3,0.9l-1,1c0.3,0.6,0.6,1.1,1,1.6l1.3-0.5c0.3,0.3,0.7,0.6,1.1,0.9l-0.1,1.4C5,71.8,5.6,72,6.2,72.2L6.9,71
		c0.5,0.1,1,0,1.6,0l0.8,1.1c0.6-0.1,1.1-0.3,1.6-0.6l-0.2-1.3c0.5-0.3,1-0.7,1.4-1.2l1.3,0.3c0.3-0.5,0.6-0.9,0.8-1.5l-1-0.9
		c0.2-0.6,0.3-1.3,0.3-2l1.2-0.6c0-0.2,0-0.4-0.1-0.6C14.5,63.5,14.4,63.1,14.3,62.8z M7.6,68.2c-1.7,0-3.1-1.4-3.1-3.1
		S5.9,62,7.6,62s3.1,1.4,3.1,3.1S9.3,68.2,7.6,68.2z"/>
	<path class="st5" d="M98.3,62.5l-1.3,0c-0.3-0.6-0.7-1.2-1.1-1.7l0.5-1.2c-0.4-0.4-0.8-0.7-1.3-0.9l-1,0.9
		c-0.6-0.3-1.2-0.4-1.9-0.5l-0.4-1.3c-0.5,0-1,0-1.6,0.1c0,0-0.1,0-0.1,0l-0.2,1.4c-0.6,0.2-1.1,0.4-1.6,0.8l-1.1-0.7
		c-0.5,0.4-0.9,0.8-1.2,1.3l0.7,1.2c-0.3,0.4-0.5,0.9-0.6,1.4l-1.3,0.1c-0.1,0.6-0.2,1.2-0.2,1.8l1.3,0.5c0,0.1,0,0.3,0.1,0.4
		c0.1,0.3,0.2,0.6,0.3,0.9l-1,1c0.3,0.6,0.6,1.1,1,1.6l1.3-0.5c0.3,0.3,0.7,0.6,1.1,0.9l-0.1,1.4c0.5,0.3,1.1,0.5,1.7,0.6l0.7-1.2
		c0.5,0.1,1,0,1.6,0l0.8,1.1c0.6-0.1,1.1-0.3,1.6-0.6l-0.2-1.3c0.5-0.3,1-0.7,1.4-1.2l1.3,0.3c0.3-0.5,0.6-0.9,0.8-1.5l-1-0.9
		c0.2-0.6,0.3-1.3,0.3-2l1.2-0.6c0-0.2,0-0.4-0.1-0.6C98.5,63.1,98.4,62.8,98.3,62.5z M91.5,67.8c-1.7,0-3.1-1.4-3.1-3.1
		s1.4-3.1,3.1-3.1c1.7,0,3.1,1.4,3.1,3.1S93.2,67.8,91.5,67.8z"/>
	<path class="st6" d="M96.5,4.7C96.1,3.1,95,0.4,90.6,0C84.4-0.5,75.4,4,71.8,6C66.1,9,59.5,13.6,58.1,17.1
		c-1.1,2.9-2.4,8.4-3.8,16.5c-3.9-1.4-8-1.5-12-0.3c-1.3-8-2.6-13.4-3.7-16.2C37.2,13.6,30.6,9,24.9,6C21.3,4,12.2-0.5,6,0
		C1.7,0.4,0.5,3.1,0.2,4.7c-1.4,7,4.9,10.9,11.1,14.8c4.2,2.6,8.5,5.3,10.4,8.8c1.8,3.4,3.6,6.8,5.2,9.7c-1.1,1.7-1.7,3.7-1.7,5.9
		c0,1.6,0.3,3.1,1,4.5c-1.6,3.5-2.5,7.2-2.5,10.7c0,13.4,12.6,14.9,21.4,15V82h7.7V74c8.6-0.4,19.5-2.4,19.5-15
		c0-3.3-0.7-6.7-2.1-9.9c0.8-1.5,1.3-3.3,1.3-5.2c0-2.1-0.6-4-1.6-5.7c1.6-3,3.4-6.4,5.3-9.9c1.8-3.5,6.2-6.2,10.4-8.8
		C91.5,15.6,97.9,11.7,96.5,4.7z M53.1,43.4c0-3.4,2.8-6.2,6.2-6.2s6.2,2.8,6.2,6.2s-2.8,6.2-6.2,6.2S53.1,46.8,53.1,43.4z
		 M43.2,43.4c0,3.4-2.8,6.2-6.2,6.2s-6.2-2.8-6.2-6.2s2.8-6.2,6.2-6.2S43.2,40,43.2,43.4z M25.3,26.4C23,21.9,18.1,18.9,13.5,16
		C7.2,12,3.5,9.4,4.3,5.6c0.1-0.4,0.2-1.2,2.1-1.4c0.2,0,0.5,0,0.7,0c8.2,0,26,10.4,27.6,14.5c1,2.4,2.1,7.5,3.3,14.5
		c-0.1,0-0.2,0-0.3,0C37.2,33.1,36.6,33,36,33c-2.3,0-4.4,0.7-6.1,1.9C28.5,32.3,26.9,29.3,25.3,26.4z M67.8,61.4H56.2
		c0.2,0.4,0.4,0.9,0.5,1.4h10.8c-0.4,1.2-1,2.3-1.8,3.1l-8.9-2c-0.1,0.5-0.2,0.9-0.4,1.3l7.9,1.8c-1.3,0.8-2.9,1.5-4.9,1.9l0.1-0.2
		l-3.9-2.4c-0.3,0.4-0.6,0.7-1,1l3.1,1.9C55,69.8,51.8,70,47.9,70c-4.2,0-7.7-0.2-10.5-0.8l4.3-1.9c-0.4-0.3-0.7-0.7-1-1.1l-5.6,2.5
		c-1.8-0.5-3.3-1.2-4.4-2.2l9.4-1.4c-0.2-0.4-0.3-0.9-0.3-1.4l-10.3,1.5c-0.6-0.7-1-1.6-1.3-2.5h11.6c0.1-0.5,0.2-0.9,0.5-1.4H27.9
		c-0.1-0.7-0.2-1.5-0.2-2.3c0-2.2,0.4-4.5,1.2-6.8c1.9,1.6,4.3,2.6,7,2.6c0.4,0,0.8,0,1.2-0.1c0.3,2.1,1.4,3.7,2.8,3.7
		c1.6,0,2.9-2.1,2.9-4.6c0-0.5-0.1-1.1-0.2-1.5c0.6-0.5,1.1-0.9,1.5-1.4c1.5-1.4,2.5-2.2,4-2.2c1.1,0,2,0.7,3.4,2
		c0.7,0.6,1.4,1.3,2.3,1.9c-0.1,0.4-0.1,0.8-0.1,1.2c0,2.5,1.3,4.6,2.9,4.6c1.4,0,2.6-1.6,2.8-3.7c0.3,0,0.5,0.1,0.8,0.1
		c2.4,0,4.7-0.8,6.5-2.2c0.7,2.1,1.1,4.3,1.1,6.4C68,59.9,67.9,60.7,67.8,61.4z M83.2,16c-4.7,2.9-9.5,5.9-11.9,10.4
		c-1.6,3-3.2,6-4.6,8.7c-1.8-1.3-4-2-6.3-2c-0.6,0-1.1,0-1.6,0.1c0,0-0.1,0-0.1,0c1.2-7,2.4-12.1,3.3-14.5
		c1.6-4.1,19.4-14.5,27.6-14.5c0.3,0,0.5,0,0.7,0c1.9,0.2,2,0.9,2.1,1.4C93.2,9.4,89.5,12,83.2,16z"/>
	<circle class="st7" cx="37" cy="43.4" r="6.2"/>
	<circle class="st7" cx="59.2" cy="43.4" r="6.2"/>
</g>
</svg>
